<svg xmlns="http://www.w3.org/2000/svg" width="173.745" height="173.084" viewBox="0 0 173.745 173.084">
  <g id="Illustration" transform="translate(0.03 -0.023)">
    <g id="Overspending" transform="translate(-0.03 0.023)">
      <path id="Tracé_2632" data-name="Tracé 2632" d="M771.518,1718.078a52.687,52.687,0,0,1-11.929-1.37.209.209,0,0,1,.085-.409,52.028,52.028,0,0,0,28.831-1.494.209.209,0,0,1,.139.394A52.377,52.377,0,0,1,771.518,1718.078Z" transform="translate(-687.166 -1552.607)"/>
      <path id="Tracé_2633" data-name="Tracé 2633" d="M1063.765,1710.626a.209.209,0,0,1-.069-.406c.443-.153.89-.314,1.326-.479a.209.209,0,0,1,.148.391c-.44.166-.89.327-1.332.482A.226.226,0,0,1,1063.765,1710.626Z" transform="translate(-962.354 -1548.022)"/>
      <path id="Tracé_2634" data-name="Tracé 2634" d="M732.659,1739.705a60.616,60.616,0,0,1-17.528-2.589.209.209,0,1,1,.123-.4,59.711,59.711,0,0,0,39.007-1.5.21.21,0,0,1,.272.117.208.208,0,0,1-.118.27A59.392,59.392,0,0,1,732.659,1739.705Z" transform="translate(-646.937 -1571.087)"/>
      <path id="Tracé_2635" data-name="Tracé 2635" d="M1091.5,1691.91h-.028a.209.209,0,0,1-.16-.111l-1.016-1.964a.208.208,0,0,1,.2-.3l2.693.13a.209.209,0,0,1,.146.349l-1.681,1.835A.212.212,0,0,1,1091.5,1691.91Zm-.666-1.945.712,1.374,1.173-1.283Z" transform="translate(-986.531 -1529.733)"/>
      <path id="Tracé_2636" data-name="Tracé 2636" d="M644.961,296.515a.208.208,0,0,1-.147-.061l-.93-.921a.207.207,0,0,1,0-.295.211.211,0,0,1,.3,0l.93.92a.209.209,0,0,1-.148.357Z" transform="translate(-582.559 -267.261)"/>
      <path id="Tracé_2637" data-name="Tracé 2637" d="M679.153,330.577a.208.208,0,0,1-.147-.061l-.932-.923a.208.208,0,0,1,0-.295.21.21,0,0,1,.3,0l.93.92a.211.211,0,0,1-.147.358Z" transform="translate(-613.495 -298.099)"/>
      <path id="Tracé_2638" data-name="Tracé 2638" d="M644,330.6a.209.209,0,0,1-.149-.357l.93-.92a.21.21,0,0,1,.3,0,.207.207,0,0,1,0,.295l-.93.921A.208.208,0,0,1,644,330.6Z" transform="translate(-582.525 -298.117)"/>
      <path id="Tracé_2639" data-name="Tracé 2639" d="M678.216,296.515a.209.209,0,0,1-.149-.357l.93-.92a.211.211,0,0,1,.3,0,.208.208,0,0,1,0,.295l-.93.921A.208.208,0,0,1,678.216,296.515Z" transform="translate(-613.489 -267.261)"/>
      <path id="Tracé_2640" data-name="Tracé 2640" d="M1634.559,460.634a1.734,1.734,0,1,1,1.242-.513A1.74,1.74,0,0,1,1634.559,460.634Zm0-3.047a1.331,1.331,0,0,0-.943.39,1.305,1.305,0,0,0,.01,1.859,1.338,1.338,0,0,0,1.876-.009,1.307,1.307,0,0,0-.009-1.859h0A1.336,1.336,0,0,0,1634.559,457.586Z" transform="translate(-1477.451 -413.93)"/>
      <path id="Tracé_2641" data-name="Tracé 2641" d="M619.754,729.8l-105.788,5.619a5.818,5.818,0,0,1-6.126-5.945V655.483a6.613,6.613,0,0,1,6.126-6.6l105.788-5.62a5.819,5.819,0,0,1,6.127,5.946v73.993A6.617,6.617,0,0,1,619.754,729.8Z" transform="translate(-459.515 -582.42)" fill="#fff"/>
      <path id="Tracé_2642" data-name="Tracé 2642" d="M511.643,733.586a5.918,5.918,0,0,1-4.092-1.614,6.179,6.179,0,0,1-1.921-4.549v-74a6.841,6.841,0,0,1,6.326-6.81L617.742,641a5.928,5.928,0,0,1,4.427,1.608,6.178,6.178,0,0,1,1.921,4.548v73.993a6.832,6.832,0,0,1-6.326,6.8l-105.787,5.622C511.865,733.58,511.755,733.586,511.643,733.586Zm106.434-92.171c-.1,0-.207,0-.312.008l-105.787,5.62a6.41,6.41,0,0,0-5.932,6.385v73.993a5.759,5.759,0,0,0,1.79,4.245,5.513,5.513,0,0,0,4.116,1.492l105.786-5.62.011.209-.011-.209a6.41,6.41,0,0,0,5.929-6.387V647.157a5.76,5.76,0,0,0-1.791-4.246,5.5,5.5,0,0,0-3.8-1.5Z" transform="translate(-457.515 -580.363)"/>
      <path id="Tracé_2643" data-name="Tracé 2643" d="M1604.39,51.32c5.553-3.443,8.432-7.945,9.837-16.93A16.1,16.1,0,0,1,1615,42.4l3.021-1.672c.07,2.439-.405,5.385-2.459,7.246l3.794-1.741c-1.88,4.132-4.075,11.845-12.37,8.43Z" transform="translate(-1451.726 -31.139)" fill="#fff"/>
      <path id="Tracé_2644" data-name="Tracé 2644" d="M1608.76,53.722a10.146,10.146,0,0,1-3.848-.859.219.219,0,0,1-.087-.065l-2.6-3.344a.208.208,0,0,1,.055-.3c5.745-3.561,8.384-8.11,9.741-16.786a.209.209,0,0,1,.19-.176.214.214,0,0,1,.215.148,16.7,16.7,0,0,1,.856,7.677l2.638-1.459a.21.21,0,0,1,.312.176,10.287,10.287,0,0,1-1.793,6.621l2.83-1.3a.211.211,0,0,1,.235.042.208.208,0,0,1,.043.234c-.19.412-.381.86-.58,1.334C1615.548,49,1613.538,53.722,1608.76,53.722Zm-3.636-1.223c7.226,2.943,9.672-2.8,11.459-7,.123-.289.241-.568.358-.836l-3.289,1.513a.21.21,0,0,1-.265-.073.207.207,0,0,1,.036-.271c1.982-1.8,2.412-4.592,2.4-6.741l-2.712,1.494a.211.211,0,0,1-.225-.014.208.208,0,0,1-.084-.208,14.859,14.859,0,0,0-.511-7.021c-1.395,8.025-4.134,12.587-9.585,16.033Z" transform="translate(-1449.729 -29.145)"/>
      <path id="Tracé_2645" data-name="Tracé 2645" d="M1275.968,75.63c-5.554-3.443-8.431-7.945-9.837-16.93a16.094,16.094,0,0,0-.773,8.012l-3.022-1.672c-.07,2.439.406,5.385,2.46,7.246l-3.8-1.741c1.881,4.132,4.075,11.845,12.37,8.43Z" transform="translate(-1141.011 -53.15)" fill="#fff"/>
      <path id="Tracé_2646" data-name="Tracé 2646" d="M1267.621,78.034c-4.779,0-6.788-4.723-8.21-8.062-.2-.473-.392-.921-.58-1.334a.208.208,0,0,1,.043-.235.211.211,0,0,1,.236-.041l2.83,1.3a10.272,10.272,0,0,1-1.792-6.621.208.208,0,0,1,.106-.176.21.21,0,0,1,.206,0l2.638,1.459a16.665,16.665,0,0,1,.856-7.678.211.211,0,0,1,.408.028c1.356,8.675,4,13.224,9.74,16.786a.207.207,0,0,1,.055.3l-2.6,3.344a.21.21,0,0,1-.086.065A10.155,10.155,0,0,1,1267.621,78.034Zm-8.183-9.061q.176.4.359.836c1.787,4.2,4.233,9.945,11.459,7l2.424-3.121c-5.45-3.447-8.19-8.007-9.585-16.033a14.872,14.872,0,0,0-.512,7.021.208.208,0,0,1-.083.208.213.213,0,0,1-.226.013l-2.716-1.5c-.014,2.149.416,4.943,2.4,6.741a.208.208,0,0,1,.032.269.211.211,0,0,1-.262.074Z" transform="translate(-1139.031 -51.157)"/>
      <ellipse id="Ellipse_12" data-name="Ellipse 12" cx="13.121" cy="13.011" rx="13.121" ry="13.011" transform="translate(131.107 13.797)"/>
      <ellipse id="Ellipse_13" data-name="Ellipse 13" cx="12.731" cy="12.625" rx="12.731" ry="12.625" transform="translate(132.01 13.737)" fill="#fff"/>
      <path id="Tracé_2647" data-name="Tracé 2647" d="M1398.075,168.736a12.929,12.929,0,1,1,1.463-.081A13.105,13.105,0,0,1,1398.075,168.736Zm.02-25.254a12.707,12.707,0,0,0-1.412.079,12.562,12.562,0,1,0,1.414-.076Z" transform="translate(-1253.347 -129.54)"/>
      <ellipse id="Ellipse_14" data-name="Ellipse 14" cx="10.685" cy="10.594" rx="10.685" ry="10.594" transform="translate(134.057 15.768)" fill="#fff"/>
      <path id="Tracé_2648" data-name="Tracé 2648" d="M1619.705,299.221a.209.209,0,0,1-.19-.305,10.318,10.318,0,0,0,.932-2.81.207.207,0,0,1,.243-.169.209.209,0,0,1,.17.242,10.717,10.717,0,0,1-.97,2.924A.211.211,0,0,1,1619.705,299.221Z" transform="translate(-1465.391 -267.945)"/>
      <path id="Tracé_2649" data-name="Tracé 2649" d="M1421.665,170.259a.208.208,0,0,1-.182-.312,10.943,10.943,0,0,1,18.668-.406.208.208,0,0,1-.065.288.21.21,0,0,1-.289-.064,10.523,10.523,0,0,0-17.95.391A.21.21,0,0,1,1421.665,170.259Z" transform="translate(-1286.198 -148.951)"/>
      <path id="Tracé_2650" data-name="Tracé 2650" d="M1417.477,248.175a10.878,10.878,0,0,1-10.818-9.6,10.739,10.739,0,0,1,.783-5.4.21.21,0,1,1,.387.163,10.315,10.315,0,0,0-.753,5.192,10.464,10.464,0,0,0,11.581,9.158.208.208,0,1,1,.047.414A10.988,10.988,0,0,1,1417.477,248.175Z" transform="translate(-1272.748 -211.006)"/>
      <path id="Tracé_2651" data-name="Tracé 2651" d="M1480.217,214.166l-.2-1.731a7.5,7.5,0,0,1-3.212-.435l.309-2.192a6.578,6.578,0,0,0,3.14.461c1.047-.117,1.719-.6,1.636-1.324-.079-.691-.717-1.063-2.128-1.367-2.041-.437-3.485-1.2-3.686-2.965-.182-1.6.814-2.987,2.737-3.589l-.2-1.731,1.8-.2.182,1.6a6.732,6.732,0,0,1,2.733.3l-.3,2.119a6.165,6.165,0,0,0-2.717-.323c-1.194.133-1.522.686-1.464,1.2.068.6.755.912,2.379,1.324,2.273.521,3.269,1.424,3.455,3.064.184,1.621-.817,3.135-2.888,3.735l.211,1.859Z" transform="translate(-1335.605 -180.262)" fill="#db831b"/>
      <path id="Tracé_2652" data-name="Tracé 2652" d="M1294.09,460.441c6.873-4.256,10.434-9.829,12.173-20.951,1.181,3.917,1.545,6.832.957,9.915l3.739-2.069c.086,3.018-.5,6.663-3.045,8.967l4.695-2.156c-2.326,5.113-5.043,14.66-15.3,10.433Z" transform="translate(-1170.952 -397.924)" fill="#fff"/>
      <path id="Tracé_2653" data-name="Tracé 2653" d="M1300.01,463.833a12.639,12.639,0,0,1-4.779-1.074.209.209,0,0,1-.086-.065l-3.217-4.139a.206.206,0,0,1,.055-.3c7.031-4.359,10.416-10.192,12.076-20.808a.21.21,0,0,1,.19-.176.213.213,0,0,1,.216.148c1.188,3.941,1.5,6.759,1.038,9.579l3.353-1.856a.21.21,0,0,1,.206,0,.208.208,0,0,1,.106.176c.072,2.515-.3,5.879-2.342,8.323l3.7-1.7a.211.211,0,0,1,.235.042.208.208,0,0,1,.043.234c-.232.511-.468,1.065-.718,1.651-1.1,2.585-2.474,5.8-4.718,7.85A7.683,7.683,0,0,1,1300.01,463.833Zm-4.567-1.438c9,3.673,12.037-3.469,14.258-8.686.17-.4.334-.786.5-1.153l-4.187,1.923a.21.21,0,0,1-.265-.073.207.207,0,0,1,.035-.271c2.492-2.26,3.012-5.782,2.981-8.461l-3.433,1.9a.213.213,0,0,1-.226-.013.208.208,0,0,1-.083-.208,18.682,18.682,0,0,0-.693-8.926c-1.713,10.074-5.113,15.765-11.923,20.052Z" transform="translate(-1168.955 -395.91)"/>
      <path id="Tracé_2654" data-name="Tracé 2654" d="M862.312,380.82c-8.3-5.147-12.6-11.874-14.7-25.31-1.427,4.729-1.866,8.253-1.155,11.978l-4.517-2.5c-.1,3.646.607,8.049,3.677,10.833l-5.672-2.6c2.811,6.174,6.1,17.707,18.486,12.606Z" transform="translate(-760.015 -321.887)" fill="#fff"/>
      <path id="Tracé_2655" data-name="Tracé 2655" d="M850.755,385.335a9.26,9.26,0,0,1-6.446-2.539c-2.708-2.465-4.361-6.347-5.688-9.468-.3-.708-.587-1.378-.868-2a.208.208,0,0,1,.043-.234.211.211,0,0,1,.235-.042l4.644,2.133c-2.569-2.955-3.035-7.094-2.95-10.177a.208.208,0,0,1,.107-.179.21.21,0,0,1,.21,0l4.129,2.289c-.571-3.43-.207-6.845,1.237-11.641a.21.21,0,0,1,.408.028c2.007,12.835,6.1,19.891,14.609,25.165a.206.206,0,0,1,.055.3l-3.881,5a.222.222,0,0,1-.086.065A15.258,15.258,0,0,1,850.755,385.335Zm-12.392-13.666c.209.473.422.976.644,1.5,2.691,6.322,6.375,14.974,17.292,10.512l3.711-4.774c-8.287-5.2-12.393-12.118-14.456-24.415-1.263,4.462-1.518,7.7-.89,10.99a.21.21,0,0,1-.308.221l-4.217-2.331c-.047,3.255.571,7.567,3.616,10.327a.208.208,0,0,1,.032.269.211.211,0,0,1-.262.074Z" transform="translate(-758.02 -319.917)"/>
      <ellipse id="Ellipse_15" data-name="Ellipse 15" cx="18.411" cy="18.257" rx="18.411" ry="18.257" transform="translate(92.099 44.536)"/>
      <ellipse id="Ellipse_16" data-name="Ellipse 16" cx="17.865" cy="17.714" rx="17.865" ry="17.714" transform="translate(93.433 44.537)" fill="#fff"/>
      <path id="Tracé_2656" data-name="Tracé 2656" d="M997.729,504.537a17.924,17.924,0,1,1,18.079-17.923A18.023,18.023,0,0,1,997.729,504.537Zm0-35.43a17.507,17.507,0,1,0,17.655,17.506A17.6,17.6,0,0,0,997.729,469.107Z" transform="translate(-886.432 -424.362)"/>
      <ellipse id="Ellipse_17" data-name="Ellipse 17" cx="14.992" cy="14.867" rx="14.992" ry="14.867" transform="translate(96.305 47.385)" fill="#fff"/>
      <path id="Tracé_2657" data-name="Tracé 2657" d="M1300.116,704.559a.208.208,0,0,1-.176-.322,14.533,14.533,0,0,0,1.756-3.8.21.21,0,1,1,.4.118,14.923,14.923,0,0,1-1.808,3.9A.208.208,0,0,1,1300.116,704.559Z" transform="translate(-1176.214 -634.046)"/>
      <path id="Tracé_2658" data-name="Tracé 2658" d="M1066.094,507.607a.211.211,0,0,1-.19-.117,14.7,14.7,0,0,0-13.306-8.265,14.886,14.886,0,0,0-11.928,6,.211.211,0,0,1-.294.044.208.208,0,0,1-.045-.292,15.307,15.307,0,0,1,12.267-6.17,15.116,15.116,0,0,1,13.684,8.5.207.207,0,0,1-.011.2.21.21,0,0,1-.179.1Z" transform="translate(-941.301 -451.632)"/>
      <path id="Tracé_2659" data-name="Tracé 2659" d="M1025.091,601.788a15.156,15.156,0,0,1-15.2-15.076,14.99,14.99,0,0,1,1.937-7.37.211.211,0,0,1,.281-.07.208.208,0,0,1,.084.276,14.575,14.575,0,0,0-1.883,7.164,14.739,14.739,0,0,0,14.782,14.66.209.209,0,1,1,0,.418Z" transform="translate(-913.794 -524.461)"/>
      <path id="Tracé_2660" data-name="Tracé 2660" d="M1113.26,568.213v-2.444a10.514,10.514,0,0,1-4.41-1.107l.778-3.01a9.226,9.226,0,0,0,4.306,1.135c1.479,0,2.491-.568,2.491-1.6,0-.977-.831-1.595-2.75-2.238-2.777-.926-4.67-2.212-4.67-4.708,0-2.263,1.608-4.039,4.385-4.579V547.22h2.542v2.263a9.38,9.38,0,0,1,3.761.851l-.752,2.907a8.654,8.654,0,0,0-3.737-.875c-1.686,0-2.231.72-2.231,1.44,0,.851.909,1.389,3.113,2.212,3.088,1.08,4.333,2.5,4.333,4.811,0,2.29-1.635,4.245-4.619,4.759v2.625Z" transform="translate(-1003.338 -495.464)" fill="#e8901c"/>
      <rect id="Rectangle_107" data-name="Rectangle 107" width="121.834" height="86.535" rx="43.267" transform="translate(47.482 68.257)" fill="#fff"/>
      <path id="Tracé_2661" data-name="Tracé 2661" d="M612.524,806.422H503.289a6.5,6.5,0,0,1-6.509-6.47V725.94a6.5,6.5,0,0,1,6.509-6.471H612.524a6.5,6.5,0,0,1,6.509,6.471v74.011A6.5,6.5,0,0,1,612.524,806.422ZM503.289,719.887a6.078,6.078,0,0,0-6.09,6.053v74.011a6.078,6.078,0,0,0,6.09,6.053H612.524a6.078,6.078,0,0,0,6.09-6.053V725.94a6.078,6.078,0,0,0-6.09-6.053Z" transform="translate(-449.507 -651.422)"/>
      <path id="Tracé_2662" data-name="Tracé 2662" d="M649.3,832.741H646.78a.211.211,0,0,1-.194-.1.208.208,0,0,1,0-.217.211.211,0,0,1,.194-.1h2.52a4.457,4.457,0,0,0,.794-.071.209.209,0,1,1,.074.411,4.928,4.928,0,0,1-.871.077Zm-5.043,0h-2.517a.209.209,0,0,1,0-.417h2.521a.209.209,0,0,1,0,.417Zm-5.043,0h-2.517a.211.211,0,0,1-.194-.1.207.207,0,0,1,0-.217.21.21,0,0,1,.194-.1h2.52a.211.211,0,0,1,.194.1.208.208,0,0,1,0,.217.211.211,0,0,1-.194.1Zm-5.043,0h-2.52a.211.211,0,0,1-.194-.1.208.208,0,0,1,0-.217.211.211,0,0,1,.194-.1h2.52a.211.211,0,0,1,.194.1.208.208,0,0,1,0,.217A.211.211,0,0,1,634.168,832.741Zm-5.043,0H626.6a.209.209,0,0,1,0-.417h2.521a.209.209,0,0,1,0,.417Zm-5.043,0h-2.52a.209.209,0,0,1,0-.417h2.52a.211.211,0,0,1,.194.1.208.208,0,0,1,0,.217A.211.211,0,0,1,624.082,832.741Zm-5.043,0h-2.52a.211.211,0,0,1-.194-.1.208.208,0,0,1,0-.217.211.211,0,0,1,.194-.1h2.52a.211.211,0,0,1,.194.1.208.208,0,0,1,0,.217A.211.211,0,0,1,619.039,832.741Zm-5.043,0h-2.52a.211.211,0,0,1-.194-.1.208.208,0,0,1,0-.217.211.211,0,0,1,.194-.1H614a.209.209,0,0,1,0,.417Zm-5.043,0h-2.52a.209.209,0,0,1,0-.417h2.52a.211.211,0,0,1,.194.1.208.208,0,0,1,0,.217A.211.211,0,0,1,608.953,832.741Zm-5.043,0h-2.488a.211.211,0,0,1-.194-.1.208.208,0,0,1,0-.217.211.211,0,0,1,.194-.1h2.52a.211.211,0,0,1,.194.1.208.208,0,0,1,0,.217.211.211,0,0,1-.194.1Zm-5.043,0h-2.52a.211.211,0,0,1-.194-.1.208.208,0,0,1,0-.217.211.211,0,0,1,.194-.1h2.52a.209.209,0,0,1,0,.417Zm-5.043,0H591.3a.209.209,0,0,1,0-.417h2.521a.209.209,0,0,1,0,.417Zm-5.043,0h-2.52a.211.211,0,0,1-.194-.1.208.208,0,0,1,0-.217.211.211,0,0,1,.194-.1h2.52a.211.211,0,0,1,.194.1.208.208,0,0,1,0,.217A.211.211,0,0,1,588.78,832.741Zm-5.043,0h-2.474a.211.211,0,0,1-.194-.1.208.208,0,0,1,0-.217.211.211,0,0,1,.194-.1h2.52a.211.211,0,0,1,.194.1.208.208,0,0,1,0,.217.211.211,0,0,1-.194.1Zm-5.043,0h-2.471a.209.209,0,0,1,0-.417h2.523a.209.209,0,0,1,0,.417Zm-5.043,0h-2.467a.211.211,0,0,1-.194-.1.208.208,0,0,1,0-.217.211.211,0,0,1,.194-.1h2.52a.211.211,0,0,1,.194.1.208.208,0,0,1,0,.217.211.211,0,0,1-.194.1Zm-5.043,0h-2.464a.211.211,0,0,1-.194-.1.208.208,0,0,1,0-.217.211.211,0,0,1,.194-.1h2.516a.211.211,0,0,1,.194.1.208.208,0,0,1,0,.217.211.211,0,0,1-.194.1Zm-5.043,0h-2.46a.211.211,0,0,1-.194-.1.208.208,0,0,1,0-.217.21.21,0,0,1,.194-.1h2.52a.209.209,0,0,1,0,.417Zm-5.043,0h-2.457a.209.209,0,0,1,0-.417h2.52a.211.211,0,0,1,.194.1.208.208,0,0,1,0,.217.211.211,0,0,1-.194.1Zm-5.043,0h-2.453a.211.211,0,0,1-.194-.1.208.208,0,0,1,0-.217.211.211,0,0,1,.194-.1h2.52a.211.211,0,0,1,.194.1.208.208,0,0,1,0,.217.211.211,0,0,1-.194.1Zm-5.043,0h-2.449a.211.211,0,0,1-.194-.1.208.208,0,0,1,0-.217.211.211,0,0,1,.194-.1h2.52a.209.209,0,0,1,0,.417Zm-5.043-.008h-.012a4.871,4.871,0,0,1-2.463-.831.208.208,0,0,1,.024-.365.212.212,0,0,1,.213.02,4.439,4.439,0,0,0,2.249.757.209.209,0,0,1-.011.417Zm108.9-1.142a.214.214,0,0,1-.158-.071.207.207,0,0,1,.019-.3,4.428,4.428,0,0,0,1.381-1.97.21.21,0,1,1,.4.128,4.835,4.835,0,0,1-1.427,2.161.21.21,0,0,1-.14.047ZM539.5,830.05a.209.209,0,0,1-.19-.121,4.774,4.774,0,0,1-.446-2.026v-.5a.209.209,0,0,1,.1-.193.211.211,0,0,1,.218,0,.209.209,0,0,1,.1.193v.5a4.365,4.365,0,0,0,.407,1.851.207.207,0,0,1,.007.16.209.209,0,0,1-.109.117A.2.2,0,0,1,539.5,830.05Zm114.452-3.009a.209.209,0,0,1-.209-.208v-2.505a.21.21,0,0,1,.42,0v2.505a.207.207,0,0,1-.062.147A.21.21,0,0,1,653.954,827.041ZM539.076,825.1a.21.21,0,0,1-.21-.209v-2.5a.209.209,0,0,1,.1-.193.211.211,0,0,1,.218,0,.209.209,0,0,1,.1.193v2.5a.207.207,0,0,1-.061.148A.21.21,0,0,1,539.076,825.1Zm114.878-3.071a.21.21,0,0,1-.209-.209v-2.5a.209.209,0,0,1,.1-.193.211.211,0,0,1,.218,0,.209.209,0,0,1,.1.193v2.5A.21.21,0,0,1,653.954,822.032Zm-114.878-1.939a.21.21,0,0,1-.149-.061.207.207,0,0,1-.062-.147v-2.505a.21.21,0,0,1,.42,0v2.505a.206.206,0,0,1-.061.147A.209.209,0,0,1,539.076,820.093Zm114.878-3.07a.21.21,0,0,1-.209-.209v-2.5a.209.209,0,0,1,.1-.193.211.211,0,0,1,.218,0,.209.209,0,0,1,.1.193v2.5A.21.21,0,0,1,653.954,817.023Zm-114.878-1.939a.21.21,0,0,1-.21-.209v-2.5a.209.209,0,0,1,.1-.193.211.211,0,0,1,.218,0,.209.209,0,0,1,.1.193v2.508A.209.209,0,0,1,539.076,815.084Zm114.878-3.071a.209.209,0,0,1-.209-.208V809.3a.209.209,0,0,1,.1-.193.211.211,0,0,1,.218,0,.209.209,0,0,1,.1.193v2.5a.208.208,0,0,1-.061.149A.21.21,0,0,1,653.954,812.013Zm-114.878-1.938a.21.21,0,0,1-.21-.209v-2.5a.209.209,0,0,1,.1-.193.212.212,0,0,1,.218,0,.209.209,0,0,1,.1.193v2.5a.207.207,0,0,1-.061.148A.21.21,0,0,1,539.076,810.075ZM653.954,807a.21.21,0,0,1-.209-.209v-2.5a.21.21,0,0,1,.42,0v2.5A.21.21,0,0,1,653.954,807Zm-114.878-1.939a.21.21,0,0,1-.149-.061.207.207,0,0,1-.062-.147v-2.5a.209.209,0,0,1,.1-.193.211.211,0,0,1,.218,0,.208.208,0,0,1,.1.193v2.5a.206.206,0,0,1-.06.15A.209.209,0,0,1,539.076,805.065Zm114.878-3.07a.21.21,0,0,1-.209-.209v-2.5a.209.209,0,0,1,.1-.193.211.211,0,0,1,.218,0,.209.209,0,0,1,.1.193v2.5A.21.21,0,0,1,653.954,801.995Zm-114.878-1.939a.21.21,0,0,1-.21-.209v-2.5a.21.21,0,0,1,.42,0v2.5a.207.207,0,0,1-.061.148A.21.21,0,0,1,539.076,800.056Zm114.878-3.071a.209.209,0,0,1-.209-.208v-2.5a.209.209,0,0,1,.1-.193.21.21,0,0,1,.319.193v2.5a.208.208,0,0,1-.062.148A.21.21,0,0,1,653.954,796.984Zm-114.878-1.938a.21.21,0,0,1-.21-.209v-2.5a.209.209,0,0,1,.1-.193.211.211,0,0,1,.218,0,.209.209,0,0,1,.1.193v2.5a.207.207,0,0,1-.061.148A.21.21,0,0,1,539.076,795.047Zm114.878-3.071a.21.21,0,0,1-.209-.209v-2.5a.21.21,0,0,1,.42,0v2.5a.21.21,0,0,1-.21.209Zm-114.878-1.939a.21.21,0,0,1-.149-.061.208.208,0,0,1-.062-.148v-2.5a.209.209,0,0,1,.1-.193.211.211,0,0,1,.218,0,.209.209,0,0,1,.1.193v2.5a.206.206,0,0,1-.061.147A.209.209,0,0,1,539.076,790.036Zm114.878-3.07a.21.21,0,0,1-.209-.209v-2.5a.209.209,0,0,1,.1-.193.211.211,0,0,1,.218,0,.209.209,0,0,1,.1.193v2.5A.21.21,0,0,1,653.954,786.966Zm-114.878-1.939a.21.21,0,0,1-.21-.209v-2.5a.21.21,0,0,1,.42,0v2.5a.207.207,0,0,1-.061.148A.21.21,0,0,1,539.076,785.027Zm114.878-3.07a.21.21,0,0,1-.209-.209v-2.5a.209.209,0,0,1,.1-.193.212.212,0,0,1,.218,0,.209.209,0,0,1,.1.193v2.5A.21.21,0,0,1,653.954,781.957Zm-114.878-1.939a.21.21,0,0,1-.21-.209v-2.5a.209.209,0,0,1,.1-.193.211.211,0,0,1,.218,0,.208.208,0,0,1,.1.193v2.5a.207.207,0,0,1-.061.148A.21.21,0,0,1,539.076,780.018Zm114.878-3.067a.209.209,0,0,1-.209-.208v-2.509a.21.21,0,0,1,.42,0v2.505a.207.207,0,0,1-.06.15A.211.211,0,0,1,653.954,776.951Zm-114.878-1.942a.21.21,0,0,1-.21-.209v-2.5a.209.209,0,0,1,.1-.193.211.211,0,0,1,.218,0,.209.209,0,0,1,.1.193v2.5a.207.207,0,0,1-.061.148A.21.21,0,0,1,539.076,775.009Zm114.878-3.071a.21.21,0,0,1-.209-.209v-2.5a.209.209,0,0,1,.1-.193.211.211,0,0,1,.218,0,.209.209,0,0,1,.1.193v2.5A.21.21,0,0,1,653.954,771.938ZM539.076,770a.21.21,0,0,1-.149-.061.207.207,0,0,1-.062-.147v-2.505a.21.21,0,0,1,.42,0v2.506a.206.206,0,0,1-.061.147A.209.209,0,0,1,539.076,770Zm114.878-3.074a.21.21,0,0,1-.209-.209v-2.5a.209.209,0,0,1,.1-.193.211.211,0,0,1,.218,0,.209.209,0,0,1,.1.193v2.5A.21.21,0,0,1,653.954,766.925ZM539.076,764.99a.21.21,0,0,1-.21-.209v-2.5a.209.209,0,0,1,.1-.193.211.211,0,0,1,.218,0,.209.209,0,0,1,.1.193v2.5a.207.207,0,0,1-.061.148A.21.21,0,0,1,539.076,764.99Zm114.878-3.071a.209.209,0,0,1-.209-.208v-2.505a.21.21,0,0,1,.42,0v2.505a.209.209,0,0,1-.21.208Zm-114.878-1.938a.21.21,0,0,1-.21-.209v-2.5a.209.209,0,0,1,.1-.193.211.211,0,0,1,.218,0,.209.209,0,0,1,.1.193v2.5a.207.207,0,0,1-.061.148A.21.21,0,0,1,539.076,759.981Zm114.878-3.071a.209.209,0,0,1-.209-.209v-.085a4.4,4.4,0,0,0-.591-2.2.208.208,0,0,1,.077-.285.21.21,0,0,1,.286.077,4.811,4.811,0,0,1,.647,2.412v.088a.21.21,0,0,1-.21.206Zm-114.513-1.892a.212.212,0,0,1-.195-.131.207.207,0,0,1,0-.16,4.854,4.854,0,0,1,1.618-2.026.211.211,0,0,1,.293.045.208.208,0,0,1-.046.291,4.45,4.45,0,0,0-1.474,1.855.21.21,0,0,1-.2.128Zm112.122-2.245a.21.21,0,0,1-.1-.026,4.472,4.472,0,0,0-2.165-.558h-.151a.209.209,0,1,1,0-.418h.151a4.889,4.889,0,0,1,2.369.612.208.208,0,0,1-.1.391Zm-108.248-.567a.208.208,0,1,1-.019-.416c.144-.013.285-.02.436-.02h2.1a.209.209,0,1,1,0,.418h-2.1c-.133,0-.267.006-.4.017Zm103.309-.018h-2.52a.209.209,0,1,1,0-.418h2.52a.209.209,0,1,1,0,.418Zm-5.043,0h-2.52a.209.209,0,1,1,0-.418h2.52a.209.209,0,1,1,0,.418Zm-5.043,0H634.03a.209.209,0,1,1,0-.418h2.52a.209.209,0,1,1,0,.418Zm-5.043,0h-2.509a.209.209,0,1,1,0-.418h2.521a.209.209,0,1,1,0,.418Zm-5.043,0h-2.509a.209.209,0,1,1,0-.418h2.52a.209.209,0,1,1,0,.418Zm-5.043,0h-2.52a.209.209,0,1,1,0-.418h2.52a.209.209,0,1,1,0,.418Zm-5.043,0h-2.521a.209.209,0,1,1,0-.418h2.521a.209.209,0,1,1,0,.418Zm-5.043,0H608.8a.209.209,0,1,1,0-.418h2.52a.209.209,0,1,1,0,.418Zm-5.043,0h-2.52a.209.209,0,1,1,0-.418h2.52a.209.209,0,1,1,0,.418Zm-5.043,0h-2.52a.209.209,0,1,1,0-.418h2.52a.209.209,0,1,1,0,.418Zm-5.043,0h-2.52a.209.209,0,1,1,0-.418h2.52a.209.209,0,1,1,0,.418Zm-5.043,0h-2.481a.209.209,0,1,1,0-.418h2.52a.209.209,0,1,1,0,.418Zm-5.043,0h-2.52a.209.209,0,1,1,0-.418h2.52a.209.209,0,1,1,0,.418Zm-5.043,0h-2.474a.209.209,0,1,1,0-.418h2.52a.209.209,0,1,1,0,.418Zm-5.043,0h-2.47a.209.209,0,1,1,0-.418h2.52a.209.209,0,1,1,0,.418Zm-5.043,0h-2.466a.209.209,0,1,1,0-.418h2.52a.209.209,0,1,1,0,.418Zm-5.043,0h-2.464a.209.209,0,1,1,0-.418H566a.209.209,0,1,1,0,.418Zm-5.043,0h-2.46a.209.209,0,1,1,0-.418h2.52a.209.209,0,1,1,0,.418Zm-5.043,0h-2.456a.209.209,0,1,1,0-.418h2.516a.209.209,0,1,1,0,.418Zm-5.043,0h-2.453a.209.209,0,1,1,0-.418h2.521a.209.209,0,1,1,0,.418Z" transform="translate(-487.588 -680.668)"/>
      <rect id="Rectangle_108" data-name="Rectangle 108" width="30.985" height="16.721" rx="8.361" transform="translate(142.546 103.161)" fill="#fff"/>
      <path id="Tracé_2663" data-name="Tracé 2663" d="M1523.268,1105.649h-23.427a3.984,3.984,0,0,1-3.991-3.967v-9.206a3.984,3.984,0,0,1,3.991-3.967h23.427a3.985,3.985,0,0,1,3.991,3.967v9.206a3.985,3.985,0,0,1-3.991,3.967Zm-23.425-16.722a3.565,3.565,0,0,0-3.571,3.55v9.206a3.564,3.564,0,0,0,3.571,3.549h23.425a3.563,3.563,0,0,0,3.57-3.549v-9.206a3.564,3.564,0,0,0-3.57-3.55Z" transform="translate(-1353.514 -985.558)"/>
      <ellipse id="Ellipse_18" data-name="Ellipse 18" cx="3.372" cy="3.344" rx="3.372" ry="3.344" transform="translate(145.919 108.179)"/>
      <path id="Tracé_2664" data-name="Tracé 2664" d="M1147.235,1236.055a.205.205,0,0,1-.132-.046.207.207,0,0,1-.03-.293l8.345-10.261a.211.211,0,0,1,.367.052.208.208,0,0,1-.041.211l-8.34,10.261A.214.214,0,0,1,1147.235,1236.055Z" transform="translate(-1037.88 -1109.472)"/>
      <path id="Tracé_2665" data-name="Tracé 2665" d="M1250.858,1088.609a.209.209,0,0,1-.163-.34l9.991-12.281a.211.211,0,0,1,.295-.031.207.207,0,0,1,.031.293l-9.991,12.282A.209.209,0,0,1,1250.858,1088.609Z" transform="translate(-1131.644 -974.15)"/>
      <path id="Tracé_2666" data-name="Tracé 2666" d="M1371.615,1020.663a.211.211,0,0,1-.188-.119.208.208,0,0,1,.026-.22l3.072-3.783a.211.211,0,0,1,.29-.023.208.208,0,0,1,.037.286l-3.073,3.784A.21.21,0,0,1,1371.615,1020.663Z" transform="translate(-1240.911 -920.331)"/>
      <path id="Tracé_2667" data-name="Tracé 2667" d="M799.438,1254.523a.2.2,0,0,1-.131-.047.207.207,0,0,1-.031-.293l5.838-7.178a.211.211,0,0,1,.367.052.208.208,0,0,1-.041.211l-5.838,7.178A.21.21,0,0,1,799.438,1254.523Z" transform="translate(-723.178 -1128.984)"/>
      <path id="Tracé_2668" data-name="Tracé 2668" d="M872.8,1151.9a.209.209,0,0,1-.163-.34l6.851-8.418a.211.211,0,0,1,.367.052.208.208,0,0,1-.041.211l-6.851,8.418A.208.208,0,0,1,872.8,1151.9Z" transform="translate(-789.557 -1034.947)"/>
      <path id="Tracé_2669" data-name="Tracé 2669" d="M967.778,1030.022a.209.209,0,0,1-.163-.341l7.219-8.876a.211.211,0,0,1,.367.052.208.208,0,0,1-.04.211l-7.219,8.876A.211.211,0,0,1,967.778,1030.022Z" transform="translate(-875.5 -924.179)"/>
      <path id="Tracé_2670" data-name="Tracé 2670" d="M1089.806,1419.427a.21.21,0,0,1-.189-.119.208.208,0,0,1,.025-.221l10.5-12.9a.211.211,0,0,1,.367.052.208.208,0,0,1-.041.211l-10.5,12.907A.208.208,0,0,1,1089.806,1419.427Z" transform="translate(-985.916 -1273.109)"/>
      <path id="Tracé_2671" data-name="Tracé 2671" d="M1211.855,1286.486a.21.21,0,0,1-.189-.119.207.207,0,0,1,.027-.221l8.968-11.028a.211.211,0,0,1,.3-.031.208.208,0,0,1,.031.293l-8.968,11.028A.212.212,0,0,1,1211.855,1286.486Z" transform="translate(-1096.352 -1154.446)"/>
      <path id="Tracé_2672" data-name="Tracé 2672" d="M1080.8,118.413c4.758,4.465,6.678,9.441,6.26,18.527a16.1,16.1,0,0,0,2.358-7.7l2.627,2.232c.557-2.377.677-5.357-.963-7.586l3.371,2.453c-1.018-4.42-1.629-12.41-10.437-10.688Z" transform="translate(-977.957 -104.496)" fill="#fff"/>
      <path id="Tracé_2673" data-name="Tracé 2673" d="M1085.06,135.143a.226.226,0,0,1-.056-.008.211.211,0,0,1-.154-.211c.4-8.77-1.275-13.748-6.194-18.366a.212.212,0,0,1-.066-.156.206.206,0,0,1,.072-.153l3.216-2.767a.217.217,0,0,1,.1-.047c8.13-1.585,9.484,5.043,10.381,9.429.1.5.2.98.3,1.419a.208.208,0,0,1-.09.221.211.211,0,0,1-.24-.006l-2.515-1.829a10.226,10.226,0,0,1,.436,6.841.21.21,0,0,1-.341.112l-2.294-1.949a16.692,16.692,0,0,1-2.37,7.359A.209.209,0,0,1,1085.06,135.143Zm-5.948-18.727c4.654,4.445,6.427,9.458,6.192,17.592a14.883,14.883,0,0,0,1.9-6.782.209.209,0,0,1,.124-.187.211.211,0,0,1,.223.031l2.362,2.006c.443-2.1.58-4.926-1-7.078a.207.207,0,0,1,.019-.272.21.21,0,0,1,.274-.019l2.923,2.126c-.061-.284-.122-.583-.185-.89-.913-4.466-2.164-10.579-9.833-9.113Z" transform="translate(-975.957 -102.49)"/>
      <path id="Tracé_2674" data-name="Tracé 2674" d="M751.237,29.141c-6.31,1.739-10.357,5.245-14.273,13.468a16.064,16.064,0,0,1,1.551-7.9l-3.375.757c.63-2.358,1.93-5.049,4.431-6.257l-4.137.6c2.986-3.433,7.3-10.215,14.273-4.605Z" transform="translate(-665.187 -20.882)" fill="#fff"/>
      <path id="Tracé_2675" data-name="Tracé 2675" d="M734.958,40.932a.259.259,0,0,1-.046,0,.209.209,0,0,1-.164-.2,16.671,16.671,0,0,1,1.378-7.6l-2.95.657a.21.21,0,0,1-.193-.062.207.207,0,0,1-.05-.2,10.313,10.313,0,0,1,3.616-5.843l-3.085.45a.211.211,0,0,1-.215-.106.208.208,0,0,1,.025-.237c.3-.342.609-.718.938-1.116,2.857-3.46,7.181-8.689,13.617-3.514a.209.209,0,0,1,.064.087l1.536,3.938a.206.206,0,0,1-.007.169.208.208,0,0,1-.131.107c-6.528,1.8-10.36,5.42-14.143,13.357A.211.211,0,0,1,734.958,40.932Zm1.551-8.318a.21.21,0,0,1,.183.1.207.207,0,0,1,.008.206,14.889,14.889,0,0,0-1.518,6.876c3.633-7.3,7.566-10.906,13.777-12.674l-1.427-3.672c-6.09-4.856-10.077-.032-12.991,3.491-.2.242-.394.473-.583.7l3.586-.523a.209.209,0,0,1,.113.39c-2.415,1.166-3.626,3.725-4.227,5.789l3.034-.677A.191.191,0,0,1,736.509,32.614Z" transform="translate(-663.185 -18.996)"/>
      <ellipse id="Ellipse_19" data-name="Ellipse 19" cx="14.083" cy="13.965" rx="14.083" ry="13.965" transform="translate(79.911 0.1)"/>
      <ellipse id="Ellipse_20" data-name="Ellipse 20" cx="13.666" cy="13.551" rx="13.666" ry="13.551" transform="translate(80.994 0.208)" fill="#fff"/>
      <path id="Tracé_2676" data-name="Tracé 2676" d="M862.813,27.544A13.933,13.933,0,0,1,851.457,21.7a13.58,13.58,0,0,1-2.321-10.277A13.915,13.915,0,0,1,874.149,5.86a13.7,13.7,0,0,1,2.326,10.284A13.867,13.867,0,0,1,862.813,27.544ZM862.8.438a13.335,13.335,0,0,0-2.306,26.488,13.6,13.6,0,0,0,2.315.2A13.445,13.445,0,0,0,876.056,16.07,13.281,13.281,0,0,0,873.8,6.1,13.433,13.433,0,0,0,865.114.637a13.6,13.6,0,0,0-2.315-.2Z" transform="translate(-768.145 -0.023)"/>
      <ellipse id="Ellipse_21" data-name="Ellipse 21" cx="11.468" cy="11.372" rx="11.468" ry="11.372" transform="translate(83.192 2.387)" fill="#fff"/>
      <path id="Tracé_2677" data-name="Tracé 2677" d="M1081.43,199.638a.209.209,0,0,1-.193-.125.207.207,0,0,1,.039-.225,11.119,11.119,0,0,0,1.816-2.62.212.212,0,0,1,.283-.1.21.21,0,0,1,.1.281,11.536,11.536,0,0,1-1.885,2.719A.211.211,0,0,1,1081.43,199.638Z" transform="translate(-978.336 -177.961)"/>
      <path id="Tracé_2678" data-name="Tracé 2678" d="M928.185,31.709a.209.209,0,0,1-.2-.151,11.155,11.155,0,0,0-8.895-7.925,11.368,11.368,0,0,0-9.742,2.957.211.211,0,0,1-.3-.006.208.208,0,0,1,.006-.295,11.72,11.72,0,0,1,19.33,5.154.209.209,0,0,1-.034.183A.212.212,0,0,1,928.185,31.709Z" transform="translate(-822.497 -20.872)"/>
      <path id="Tracé_2679" data-name="Tracé 2679" d="M881.763,86.189h-.036a11.557,11.557,0,0,1-7.057-18.723.211.211,0,0,1,.3-.029.208.208,0,0,1,.029.294,11.144,11.144,0,0,0,6.8,18.044.209.209,0,0,1-.035.414Z" transform="translate(-789.07 -61.018)"/>
      <path id="Tracé_2680" data-name="Tracé 2680" d="M942.174,75.989l.324-1.842a7.986,7.986,0,0,1-3.177-1.407l.985-2.164a7.028,7.028,0,0,0,3.1,1.414c1.114.189,1.952-.1,2.088-.878.129-.737-.415-1.31-1.776-2.045-1.97-1.059-3.227-2.27-2.9-4.156.3-1.7,1.747-2.837,3.911-2.88l.323-1.842,1.915.33-.3,1.7a7.167,7.167,0,0,1,2.723,1.129l-.952,2.093a6.645,6.645,0,0,0-2.7-1.145c-1.27-.219-1.776.253-1.872.8-.112.639.5,1.165,2.053,2.072,2.184,1.216,2.934,2.444,2.628,4.189-.3,1.726-1.793,2.987-4.109,2.986l-.347,1.978Z" transform="translate(-849.939 -54.499)" fill="#ef851b"/>
      <path id="Tracé_2681" data-name="Tracé 2681" d="M434.947,1660.116s1.409,4.284,2.818,5.591,7.015,3.878,7.093,6.673c.1,3.246-1.808,3.846-6.9,2.674a16.152,16.152,0,0,1-7.8-4.351c-.958-1.125-.423-2.081-.19-3.4a28.207,28.207,0,0,0,.343-4.907v-2.686Z" transform="translate(-388.723 -1502.732)" fill="#fff"/>
      <path id="Tracé_2682" data-name="Tracé 2682" d="M439.834,1673.843a18.241,18.241,0,0,1-3.878-.558,16.379,16.379,0,0,1-7.912-4.419,2.786,2.786,0,0,1-.4-2.825c.056-.239.115-.485.161-.745a28.108,28.108,0,0,0,.34-4.871v-2.686a.208.208,0,0,1,.228-.207l4.637.406a.21.21,0,0,1,.182.143c.013.042,1.408,4.247,2.759,5.5a16.6,16.6,0,0,0,1.892,1.324c2.2,1.419,5.208,3.36,5.268,5.493a3.23,3.23,0,0,1-.938,2.8A3.574,3.574,0,0,1,439.834,1673.843Zm-11.267-15.877v2.459a28.5,28.5,0,0,1-.345,4.944c-.049.271-.108.524-.167.768a2.372,2.372,0,0,0,.308,2.459,15.928,15.928,0,0,0,7.687,4.282c3.159.727,4.967.727,5.861,0a2.858,2.858,0,0,0,.784-2.465c-.053-1.914-2.957-3.783-5.077-5.155a16.515,16.515,0,0,1-1.949-1.37c-1.308-1.214-2.578-4.8-2.832-5.547Z" transform="translate(-386.77 -1500.759)"/>
      <path id="Tracé_2683" data-name="Tracé 2683" d="M446.036,1744.547h-.015l-1.808-.13a19.3,19.3,0,0,1-12.338-5.631c-.439-.442-.679-.719-.69-.731a.209.209,0,0,1,.116-.352.211.211,0,0,1,.2.08s.242.278.671.71a18.889,18.889,0,0,0,12.07,5.508l1.808.13a.208.208,0,1,1-.015.416Z" transform="translate(-390.1 -1573.345)"/>
      <path id="Tracé_2684" data-name="Tracé 2684" d="M471,1717.773a.209.209,0,0,1-.034-.415c.024,0,2.367-.4,3.24-1.532a.211.211,0,0,1,.369.042.208.208,0,0,1-.036.212c-.974,1.259-3.4,1.673-3.5,1.69Z" transform="translate(-425.994 -1553.459)"/>
      <path id="Tracé_2685" data-name="Tracé 2685" d="M493.627,1732.74a.209.209,0,0,1-.044-.413c.023,0,2.234-.479,2.882-1.567a.211.211,0,0,1,.283-.066.208.208,0,0,1,.078.279c-.742,1.247-3.059,1.742-3.157,1.763A.211.211,0,0,1,493.627,1732.74Z" transform="translate(-446.465 -1566.974)"/>
      <path id="Tracé_2686" data-name="Tracé 2686" d="M518,1745.087a.209.209,0,0,1-.073-.4,4.905,4.905,0,0,0,2.348-1.774.211.211,0,0,1,.281-.1.209.209,0,0,1,.1.279,5.228,5.228,0,0,1-2.581,1.986A.2.2,0,0,1,518,1745.087Z" transform="translate(-468.522 -1577.952)"/>
      <path id="Tracé_2687" data-name="Tracé 2687" d="M306.552,1548.968c-.171,0-2.622-.241-4.038-.378a1,1,0,0,0-1.1.886l-.279,2.545a15.256,15.256,0,0,1-.536,2.656c-.465,1.577-1.15,4.294-.776,5.534a15.931,15.931,0,0,0,2.483,4.225,1.467,1.467,0,0,0,1.618.482,10.276,10.276,0,0,0,3.72-2c1.516-1.5-.122-4.388-.122-4.388Z" transform="translate(-271.194 -1402.117)" fill="#fff"/>
      <path id="Tracé_2688" data-name="Tracé 2688" d="M301.463,1563.174a1.676,1.676,0,0,1-1.318-.636,15.885,15.885,0,0,1-2.52-4.293c-.373-1.234.215-3.756.775-5.653a15.15,15.15,0,0,0,.529-2.621l.279-2.545a1.218,1.218,0,0,1,1.332-1.072c2.391.237,3.894.378,4.017.378a.211.211,0,0,1,.209.189l.963,9.514c.2.378,1.595,3.082.066,4.6a10.325,10.325,0,0,1-3.806,2.052A1.687,1.687,0,0,1,301.463,1563.174Zm-1.047-16.409a.8.8,0,0,0-.792.706l-.278,2.545a15.516,15.516,0,0,1-.544,2.693c-.444,1.513-1.137,4.219-.775,5.416a15.6,15.6,0,0,0,2.447,4.156,1.259,1.259,0,0,0,1.384.412,10.15,10.15,0,0,0,3.639-1.951c1.386-1.375-.14-4.111-.156-4.138a.211.211,0,0,1-.026-.081l-.952-9.383c-.591-.047-2.366-.221-3.868-.371-.027,0-.054,0-.081,0Z" transform="translate(-269.197 -1400.091)"/>
      <path id="Tracé_2689" data-name="Tracé 2689" d="M324.485,1564.609a.212.212,0,0,1-.171-.087c-3-4.182-2.795-5.278-2.349-7.676.1-.493.19-1.052.279-1.7.226-1.736.9-6.507.91-6.555a.21.21,0,1,1,.416.058c-.007.048-.683,4.817-.909,6.55-.086.662-.19,1.229-.285,1.725-.423,2.279-.616,3.32,2.279,7.359a.208.208,0,0,1,.015.216.211.211,0,0,1-.186.113Z" transform="translate(-291.094 -1401.946)"/>
      <path id="Tracé_2690" data-name="Tracé 2690" d="M344.657,1634.877a.209.209,0,0,1-.03-.415l2.759-.4a.208.208,0,1,1,.061.412l-2.759.4Z" transform="translate(-311.673 -1479.504)"/>
      <path id="Tracé_2691" data-name="Tracé 2691" d="M347.647,1655.741a.209.209,0,0,1-.03-.415l2.759-.4a.206.206,0,0,1,.157.037.211.211,0,0,1,.042.293.209.209,0,0,1-.138.082l-2.759.4Z" transform="translate(-314.378 -1498.395)"/>
      <path id="Tracé_2692" data-name="Tracé 2692" d="M350.555,1015.3c1.611,1.1,5.019,2.52,10.752.815l-2.47-67.5-10.79-2.044s-1.572,24.213-.042,38.629a261.2,261.2,0,0,1,1.427,27.931A2.6,2.6,0,0,0,350.555,1015.3Z" transform="translate(-314.283 -857.043)" fill="#25791e"/>
      <path id="Tracé_2693" data-name="Tracé 2693" d="M381.66,856.1l18.5-6.1,6.209,34.46c-.64,8.488-10.451,30.955-14.14,33.47C386.407,921.9,381.66,856.1,381.66,856.1Z" transform="translate(-345.341 -769.607)" fill="#25791e"/>
      <path id="Tracé_2694" data-name="Tracé 2694" d="M491.06,1117.186h-.006a.209.209,0,0,1-.2-.214l1.2-47.119a.21.21,0,0,1,.21-.2h0a.21.21,0,0,1,.147.065.207.207,0,0,1,.058.149l-1.2,47.119A.209.209,0,0,1,491.06,1117.186Z" transform="translate(-444.141 -968.481)" fill="#fff"/>
      <path id="Tracé_2695" data-name="Tracé 2695" d="M763.25,385.122a.3.3,0,0,1-.251-.306c.016-.768.177-3.069,1.48-4.126,1.576-1.279,2.913-4.215,3.868-3.93s-1.142,2.838-.908,3.121,1.911-1.324,2.436-2.27,1.161-2.8,1.924-2.737c1.047.086,1.275,1.649-.109,4.729-1.318,2.932-5.749,3.713-6.09,5.66a.3.3,0,0,1-.358.241Z" transform="translate(-690.395 -339.419)" fill="#fff"/>
      <path id="Tracé_2696" data-name="Tracé 2696" d="M763.339,383.744a.509.509,0,0,1-.1-.01l-1.992-.384a.512.512,0,0,1-.418-.512c.02-.924.212-3.191,1.557-4.283a12.126,12.126,0,0,0,1.821-2.1c.864-1.159,1.547-2.075,2.24-1.867a.528.528,0,0,1,.354.309c.181.443-.179,1.143-.706,2.081-.125.222-.286.5-.365.69a7.655,7.655,0,0,0,2-2.129c.121-.219.249-.488.381-.773.5-1.049,1.006-2.138,1.741-2.072a1.02,1.02,0,0,1,.825.509c.466.784.2,2.385-.761,4.511-.718,1.6-2.3,2.561-3.691,3.412-1.2.734-2.24,1.368-2.386,2.2a.5.5,0,0,1-.212.329A.517.517,0,0,1,763.339,383.744Zm2.911-8.768c-.418,0-1.071.877-1.705,1.727a12.729,12.729,0,0,1-1.893,2.175c-1.244,1.009-1.387,3.292-1.4,3.968a.1.1,0,0,0,.078.095h0l1.992.383a.1.1,0,0,0,.073-.015.084.084,0,0,0,.037-.057c.18-1.017,1.292-1.7,2.581-2.483,1.342-.819,2.862-1.747,3.527-3.226,1.258-2.8.966-3.818.782-4.128a.6.6,0,0,0-.5-.305H769.8c-.433,0-.936,1.058-1.3,1.835-.139.291-.269.567-.4.8-.443.8-1.921,2.358-2.5,2.413a.31.31,0,0,1-.286-.107c-.175-.208-.011-.52.41-1.27.3-.534.8-1.43.683-1.721-.01-.023-.025-.048-.086-.067a.288.288,0,0,0-.073-.011Z" transform="translate(-688.432 -337.442)"/>
      <path id="Tracé_2697" data-name="Tracé 2697" d="M372.96,475.883l-2.218-.44a.931.931,0,0,0-1.088.684c-.7,2.816-3.013,11.634-4.784,12.347-2.111.851-3.83-1.318-7.422-3.1a20.221,20.221,0,0,0-7.166-1.431,22.2,22.2,0,0,0-6.035.508l-6.318,1.414a20.3,20.3,0,0,0-6.165,2.154c.177.284-2.765,1.379-2.611,1.671,2.211,4.187,2.405,10.277,1.948,14.989,2.184,3.155,5.731,4.437,4.343,6.569-2.8,4.3-3.652,6.938-3.741,10.789a53.12,53.12,0,0,1,27.251-10.093,16.362,16.362,0,0,1-1.886-4.648c-.722-3.1-.128-4.783-.571-8.347a25.182,25.182,0,0,0-1.4-5.668c4.068,3.715,9.42,5.355,13.444,3.721C374.451,494.6,378.019,484.937,372.96,475.883Z" transform="translate(-297.827 -430.459)" fill="#fff"/>
      <path id="Tracé_2698" data-name="Tracé 2698" d="M329.7,520.289a.21.21,0,0,1-.208-.213c.09-4,1.007-6.653,3.773-10.9.747-1.147-.056-1.971-1.662-3.448a17.436,17.436,0,0,1-2.678-2.89.211.211,0,0,1-.035-.139c.277-2.851.643-10.007-1.925-14.87a.263.263,0,0,1-.016-.206c.073-.226.445-.429,1.412-.91a7.883,7.883,0,0,0,1.191-.662.191.191,0,0,1,.007-.044.209.209,0,0,1,.1-.129,20.5,20.5,0,0,1,6.23-2.175l6.3-1.412a22.375,22.375,0,0,1,6.09-.513,20.558,20.558,0,0,1,7.248,1.453A30.715,30.715,0,0,1,358.555,485c1.753,1.122,2.911,1.863,4.23,1.33,1.338-.54,3.284-6.659,4.662-12.2a1.142,1.142,0,0,1,1.332-.839l2.216.435a.213.213,0,0,1,.143.1,17.7,17.7,0,0,1,1.539,14.471,11.337,11.337,0,0,1-6.059,6.945c-3.827,1.555-8.881.284-13.059-3.228a25.273,25.273,0,0,1,1.142,4.957,28.194,28.194,0,0,1,.185,3.932,17.077,17.077,0,0,0,.381,4.393,16.128,16.128,0,0,0,1.862,4.589.207.207,0,0,1,.006.2.209.209,0,0,1-.17.111,52.9,52.9,0,0,0-27.137,10.047A.21.21,0,0,1,329.7,520.289Zm-.381-17.624a17.351,17.351,0,0,0,2.569,2.758c1.51,1.388,2.7,2.485,1.729,3.981-2.618,4.017-3.549,6.574-3.692,10.257a53.3,53.3,0,0,1,26.677-9.855,16.542,16.542,0,0,1-1.742-4.42,17.593,17.593,0,0,1-.394-4.49,27.622,27.622,0,0,0-.181-3.878A25.153,25.153,0,0,0,352.9,491.4a.208.208,0,0,1,.081-.245.211.211,0,0,1,.258.02c4.1,3.747,9.42,5.226,13.226,3.68a10.92,10.92,0,0,0,5.822-6.7,17.265,17.265,0,0,0-1.467-14.045l-2.122-.421a.72.72,0,0,0-.843.53c-.871,3.511-3.092,11.757-4.909,12.491-1.522.615-2.82-.216-4.616-1.366a30.416,30.416,0,0,0-2.983-1.741,20.159,20.159,0,0,0-7.083-1.409,21.9,21.9,0,0,0-5.976.5l-6.315,1.419a20.13,20.13,0,0,0-6.013,2.081c-.088.22-.476.428-1.411.9a9.32,9.32,0,0,0-1.165.639C329.931,492.644,329.593,499.746,329.319,502.665Z" transform="translate(-295.823 -428.504)"/>
      <path id="Tracé_2699" data-name="Tracé 2699" d="M521.439,757.646a.2.2,0,0,1-.1-.022.209.209,0,0,1-.1-.279l5.424-10.955a.213.213,0,0,1,.285-.095.211.211,0,0,1,.1.284l-5.424,10.955A.209.209,0,0,1,521.439,757.646Z" transform="translate(-471.629 -675.691)"/>
      <path id="Tracé_2700" data-name="Tracé 2700" d="M571.293,790.215a.224.224,0,0,1-.081-.016.209.209,0,0,1-.113-.272l1.485-3.566a.211.211,0,0,1,.271-.105.209.209,0,0,1,.117.265l-1.485,3.566A.21.21,0,0,1,571.293,790.215Z" transform="translate(-516.741 -711.877)"/>
      <path id="Tracé_2701" data-name="Tracé 2701" d="M199.593,608.57s-21.523,9.985-15.429,22.071c4.764,9.448,16.8-1.91,16.8-1.91l-2.706-4.662s-5.152,3.931-5.64,1.9c-.476-1.986,1.926-4.445,8.67-3.171l1.484,1.691s2.327-5.438-2.683-15.047Z" transform="translate(-165.654 -551.012)" fill="#fff"/>
      <path id="Tracé_2702" data-name="Tracé 2702" d="M349.68,754.234l3-3.184a13.628,13.628,0,0,1,6.34,1.658.535.535,0,0,1-.163.992,36.884,36.884,0,0,0-3.829.968c-3.1.955-3.775,1.616-3.775,1.616Z" transform="translate(-316.404 -680.016)" fill="#fff"/>
      <path id="Tracé_2703" data-name="Tracé 2703" d="M349.259,754.461h-.017a.208.208,0,0,1-.152-.081l-1.567-2.056a.208.208,0,0,1,.013-.269l3-3.184a.2.2,0,0,1,.163-.065,13.822,13.822,0,0,1,6.437,1.686.743.743,0,0,1-.229,1.377,36.743,36.743,0,0,0-3.806.962c-2.971.915-3.683,1.56-3.69,1.565A.21.21,0,0,1,349.259,754.461Zm-1.3-2.246,1.332,1.745a14.257,14.257,0,0,1,3.674-1.524,37.192,37.192,0,0,1,3.851-.972.318.318,0,0,0,.261-.263.328.328,0,0,0-.164-.344,13.349,13.349,0,0,0-6.148-1.626Z" transform="translate(-314.414 -677.984)"/>
      <path id="Tracé_2704" data-name="Tracé 2704" d="M400.258,1000.835l-4.725,3.362-3.719-14.5L390.72,973.65l2.073,1.374Z" transform="translate(-353.539 -881.561)" fill="#fff"/>
      <path id="Tracé_2705" data-name="Tracé 2705" d="M393.536,1002.392a.217.217,0,0,1-.072-.013.209.209,0,0,1-.131-.144l-3.719-14.5a.175.175,0,0,1-.007-.038l-1.093-16.048a.208.208,0,0,1,.1-.2.21.21,0,0,1,.222.007l2.073,1.373a.208.208,0,0,1,.086.116l7.465,25.811a.21.21,0,0,1-.079.228l-4.726,3.362A.21.21,0,0,1,393.536,1002.392Zm-3.511-14.738,3.639,14.187,4.355-3.1-7.4-25.6-1.655-1.1Z" transform="translate(-351.542 -879.548)"/>
      <path id="Tracé_2706" data-name="Tracé 2706" d="M132.09,1006.191l6.408-32.013,18.2-.529,4.813,30.547Z" transform="translate(-119.519 -881.561)" fill="#fff"/>
      <path id="Tracé_2707" data-name="Tracé 2707" d="M130.088,1004.408a.211.211,0,0,1-.163-.076.208.208,0,0,1-.044-.173l6.408-32.013a.21.21,0,0,1,.2-.168l18.2-.528a.213.213,0,0,1,.213.177l4.813,30.546a.208.208,0,0,1-.043.161.211.211,0,0,1-.148.079l-29.425,1.995Zm6.582-32.018-6.323,31.582,28.92-1.961-4.749-30.139Z" transform="translate(-117.517 -879.569)"/>
      <path id="Tracé_2708" data-name="Tracé 2708" d="M339.8,861.076a.209.209,0,0,1-.208-.184l-1.624-13.613a.208.208,0,0,1,.077-.2.211.211,0,0,1,.216-.026.209.209,0,0,1,.124.178l1.627,13.614a.207.207,0,0,1-.043.154.209.209,0,0,1-.14.078Z" transform="translate(-305.803 -766.92)"/>
      <path id="Tracé_2709" data-name="Tracé 2709" d="M235.186,801.21h-.021a.206.206,0,0,1-.19-.219c.046-.58,5.023-16.508,6.708-19.409a1.1,1.1,0,0,1,1.261-.447.689.689,0,0,0,.141.018.207.207,0,0,1,.156.027.2.2,0,0,1,.09.13.214.214,0,0,1-.163.252.8.8,0,0,1-.293-.015c-.344-.056-.641-.077-.828.245-1.656,2.851-6.565,18.548-6.654,19.235A.214.214,0,0,1,235.186,801.21Z" transform="translate(-212.613 -707.219)"/>
      <path id="Tracé_2710" data-name="Tracé 2710" d="M218.6,1021.174l-6.421,2.607,2.089-10.381,4.666-13.1.8,1.248Z" transform="translate(-191.988 -905.691)" fill="#fff"/>
      <path id="Tracé_2711" data-name="Tracé 2711" d="M210.185,1021.99a.21.21,0,0,1-.162-.076.207.207,0,0,1-.043-.173l2.091-10.38a.106.106,0,0,1,.008-.029l4.662-13.1a.21.21,0,0,1,.174-.138.207.207,0,0,1,.2.095l.8,1.248a.212.212,0,0,1,.033.124l-1.137,19.625a.207.207,0,0,1-.13.182l-6.421,2.607A.212.212,0,0,1,210.185,1021.99Zm2.292-10.533-2.01,9.989,5.937-2.409,1.125-19.426-.535-.831Zm4.129,7.718Z" transform="translate(-189.993 -903.692)"/>
      <path id="Tracé_2712" data-name="Tracé 2712" d="M15.629,936.43l13.278,6.041-6.756,23.48L2.17,954.306S12.256,943.888,15.629,936.43Z" transform="translate(-1.961 -847.862)" fill="#fff"/>
      <path id="Tracé_2713" data-name="Tracé 2713" d="M20.162,964.158a.215.215,0,0,1-.107-.028L.074,952.484a.207.207,0,0,1-.045-.324c.1-.1,10.1-10.478,13.416-17.817a.21.21,0,0,1,.279-.1L27,940.28a.208.208,0,0,1,.114.247l-6.756,23.479a.207.207,0,0,1-.124.137.217.217,0,0,1-.077.014ZM.517,952.257l19.518,11.376,6.631-23.048-12.924-5.879C10.569,941.538,1.89,950.812.517,952.257Z" transform="translate(0.03 -845.86)"/>
      <path id="Tracé_2714" data-name="Tracé 2714" d="M251.118,884.389a.226.226,0,0,1-.06-.009.209.209,0,0,1-.143-.261l4.039-13.512a.21.21,0,1,1,.4.119l-4.039,13.512A.21.21,0,0,1,251.118,884.389Z" transform="translate(-227.029 -788.12)"/>
      <path id="Tracé_2715" data-name="Tracé 2715" d="M165.054,792.031a.209.209,0,0,1-.185-.11.207.207,0,0,1,.011-.214c.452-.674,11.08-16.528,12.241-17.764a2.138,2.138,0,0,1,2.111-.783,1.247,1.247,0,0,1,.856,1.083.21.21,0,0,1-.417.052.828.828,0,0,0-.571-.738,1.7,1.7,0,0,0-1.675.671c-1.142,1.211-12.084,17.545-12.2,17.711A.208.208,0,0,1,165.054,792.031Z" transform="translate(-149.156 -699.975)"/>
      <path id="Tracé_2716" data-name="Tracé 2716" d="M187.783,632.67a6.8,6.8,0,0,1-1.163-.095,6.383,6.383,0,0,1-4.627-3.774,9.692,9.692,0,0,1-.518-7.833c2.922-8.352,15.914-14.46,16.045-14.52a.211.211,0,0,1,.271.1.209.209,0,0,1-.093.274c-.129.06-12.964,6.095-15.827,14.282a9.292,9.292,0,0,0,.5,7.508,5.986,5.986,0,0,0,4.324,3.55,6.254,6.254,0,0,0,1.074.09c4.662,0,10.074-4.707,10.948-5.5l-2.5-4.312c-.856.633-3.9,2.777-5.2,2.316a.893.893,0,0,1-.581-.674,2.383,2.383,0,0,1,.586-2.175c.651-.742,2.356-1.925,6.448-1.52a.211.211,0,0,1,.143.075.208.208,0,0,1,.048.153.213.213,0,0,1-.23.189c-2.855-.284-5.074.22-6.09,1.379a1.991,1.991,0,0,0-.494,1.808.474.474,0,0,0,.313.378c1.038.368,3.957-1.608,5-2.4a.215.215,0,0,1,.168-.039.21.21,0,0,1,.141.1l2.707,4.65a.209.209,0,0,1-.037.256C198.859,627.2,193,632.669,187.783,632.67Z" transform="translate(-163.671 -549.075)"/>
      <path id="Tracé_2717" data-name="Tracé 2717" d="M462.569,532.87a2.354,2.354,0,0,1-2.149.493Z" transform="translate(-416.607 -482.472)" fill="#fff"/>
      <path id="Tracé_2718" data-name="Tracé 2718" d="M459.143,531.632a3.549,3.549,0,0,1-.641-.061.209.209,0,0,1,.076-.41,2.146,2.146,0,0,0,1.955-.429.212.212,0,0,1,.3-.012.209.209,0,0,1,.012.3A2.356,2.356,0,0,1,459.143,531.632Z" transform="translate(-414.726 -480.475)"/>
      <path id="Tracé_2719" data-name="Tracé 2719" d="M268.248,313.964c0,6.749-4.525,14.453-11.333,14.453S243.18,322.6,243.18,315.851s5.726-13.251,12.533-13.251S268.248,307.214,268.248,313.964Z" transform="translate(-220.038 -273.981)"/>
      <path id="Tracé_2720" data-name="Tracé 2720" d="M246.008,468.992a1.407,1.407,0,1,1-.416-.994A1.41,1.41,0,0,1,246.008,468.992Z" transform="translate(-220.038 -423.366)"/>
      <ellipse id="Ellipse_22" data-name="Ellipse 22" cx="2.149" cy="2.13" rx="2.149" ry="2.13" transform="translate(24.555 46.166)"/>
      <path id="Tracé_2721" data-name="Tracé 2721" d="M282.641,507.8a2.543,2.543,0,0,0,0,3.61,2.58,2.58,0,0,0,3.632,0,2.543,2.543,0,0,0,0-3.61,2.574,2.574,0,0,0-3.637,0Z" transform="translate(-255.065 -459.093)"/>
      <path id="Tracé_2722" data-name="Tracé 2722" d="M319.52,521.427a2.922,2.922,0,1,0,2.922-2.9A2.913,2.913,0,0,0,319.52,521.427Z" transform="translate(-289.114 -469.488)"/>
      <ellipse id="Ellipse_23" data-name="Ellipse 23" cx="3.224" cy="3.197" rx="3.224" ry="3.197" transform="translate(34.256 48.742)"/>
      <ellipse id="Ellipse_24" data-name="Ellipse 24" cx="2.629" cy="2.607" rx="2.629" ry="2.607" transform="translate(21.89 38.183)"/>
      <path id="Tracé_2723" data-name="Tracé 2723" d="M248.016,373.524a2.867,2.867,0,0,1-3.112.621,2.831,2.831,0,0,1,0-5.245,2.867,2.867,0,0,1,3.112.621A2.831,2.831,0,0,1,248.016,373.524Z" transform="translate(-220.001 -333.815)"/>
      <ellipse id="Ellipse_25" data-name="Ellipse 25" cx="1.632" cy="1.618" rx="1.632" ry="1.618" transform="translate(22.887 42.016)"/>
      <ellipse id="Ellipse_26" data-name="Ellipse 26" cx="2.212" cy="2.193" rx="2.212" ry="2.193" transform="translate(44.516 38.183)"/>
      <ellipse id="Ellipse_27" data-name="Ellipse 27" cx="2.343" cy="2.323" rx="2.343" ry="2.323" transform="translate(44.517 35.235)"/>
      <ellipse id="Ellipse_28" data-name="Ellipse 28" cx="2.479" cy="2.458" rx="2.479" ry="2.458" transform="translate(42.75 32.324)"/>
      <ellipse id="Ellipse_29" data-name="Ellipse 29" cx="2.323" cy="2.304" rx="2.323" ry="2.304" transform="translate(41.147 29.471)"/>
      <ellipse id="Ellipse_30" data-name="Ellipse 30" cx="1.592" cy="1.579" rx="1.592" ry="1.579" transform="translate(38.932 28.619)"/>
      <ellipse id="Ellipse_31" data-name="Ellipse 31" cx="2.01" cy="1.993" rx="2.01" ry="1.993" transform="translate(35.676 27.684)"/>
      <ellipse id="Ellipse_32" data-name="Ellipse 32" cx="2.719" cy="2.697" rx="2.719" ry="2.697" transform="translate(31.753 28.187)"/>
      <ellipse id="Ellipse_33" data-name="Ellipse 33" cx="2.429" cy="2.409" rx="2.429" ry="2.409" transform="translate(28.852 28.619)"/>
      <ellipse id="Ellipse_34" data-name="Ellipse 34" cx="2.642" cy="2.62" rx="2.642" ry="2.62" transform="translate(26.21 29.704)"/>
      <ellipse id="Ellipse_35" data-name="Ellipse 35" cx="1.795" cy="1.78" rx="1.795" ry="1.78" transform="translate(23.559 32.646)"/>
      <path id="Tracé_2724" data-name="Tracé 2724" d="M427.569,425c.521.284.8.34,1.237.621.881.573,1.934,2.559,3.27,2.759.266.662-.275.851-.412,1.272.221.309.78,1.839,1.237,2.752a.7.7,0,0,1-.247.906,6.307,6.307,0,0,1-1.793.769s-2.738,5.811,1.427,7.9l-8.828-.757,2.373-7.688c-.114-.019-1.609-.284-1.975-1.4-.135-.41-.17-1.1.184-1.309s1.04.044,1.585.757a5.017,5.017,0,0,0,.1-.757,1.814,1.814,0,0,0-.125-1.051C428.9,428.2,425.129,425.435,427.569,425Z" transform="translate(-383.164 -384.804)" fill="#fff"/>
      <path id="Tracé_2725" data-name="Tracé 2725" d="M430.243,440.2h-.02l-8.828-.757a.21.21,0,0,1-.156-.091.207.207,0,0,1-.027-.178l2.306-7.472a2.587,2.587,0,0,1-1.9-1.493c-.152-.464-.206-1.262.275-1.552.4-.245,1.029-.043,1.559.473.011-.1.021-.2.029-.3.054-.671-.05-.865-.083-.908a.207.207,0,0,1,.076-.314c1.647-.794,1.384-1.837,1.128-2.845a1.879,1.879,0,0,1-.013-1.464,1.277,1.277,0,0,1,.906-.491.206.206,0,0,1,.138.022c.219.12.392.2.56.271a4.524,4.524,0,0,1,.689.359,6.072,6.072,0,0,1,1.083,1.075c.624.721,1.332,1.537,2.1,1.651a.211.211,0,0,1,.165.13.99.99,0,0,1-.215,1.108,1.49,1.49,0,0,0-.156.223c.119.213.285.6.522,1.171.213.506.454,1.08.666,1.508a.908.908,0,0,1-.323,1.174,6.451,6.451,0,0,1-1.754.77c-.31.72-2.294,5.7,1.367,7.535a.209.209,0,0,1-.1.4Zm-8.55-1.148,7.7.657c-3.192-2.438-.792-7.647-.761-7.7a.209.209,0,0,1,.136-.113,6.116,6.116,0,0,0,1.729-.747.493.493,0,0,0,.173-.637c-.221-.44-.464-1.021-.679-1.533a10.808,10.808,0,0,0-.542-1.193.209.209,0,0,1-.029-.189,1.407,1.407,0,0,1,.262-.436c.153-.194.261-.33.19-.589a4.858,4.858,0,0,1-2.23-1.769,5.84,5.84,0,0,0-1-1,3.918,3.918,0,0,0-.63-.327c-.151-.067-.32-.142-.524-.25a.828.828,0,0,0-.556.293c-.158.242-.053.656.069,1.135.245.971.579,2.29-1.168,3.229a2.543,2.543,0,0,1,.057.973,5.154,5.154,0,0,1-.108.786.21.21,0,0,1-.371.077c-.5-.662-1.093-.839-1.308-.708s-.224.669-.1,1.066c.33,1.005,1.75,1.249,1.808,1.26a.209.209,0,0,1,.145.1.206.206,0,0,1,.022.171Z" transform="translate(-381.121 -382.814)"/>
      <path id="Tracé_2726" data-name="Tracé 2726" d="M470.29,521.477a4.247,4.247,0,0,0,2.834-.087Z" transform="translate(-425.538 -472.078)" fill="#fff"/>
      <path id="Tracé_2727" data-name="Tracé 2727" d="M469.692,519.931a4.16,4.16,0,0,1-1.369-.217.209.209,0,0,1-.11-.265.211.211,0,0,1,.26-.124,4.081,4.081,0,0,0,2.681-.086.209.209,0,0,1,.155.388A4.394,4.394,0,0,1,469.692,519.931Z" transform="translate(-423.646 -470.12)"/>
      <path id="Tracé_2728" data-name="Tracé 2728" d="M503.627,1036.192a.211.211,0,0,1-.187-.115.208.208,0,0,1,.018-.218l2.6-3.538a.211.211,0,0,1,.293-.045.208.208,0,0,1,.046.291l-2.595,3.538A.208.208,0,0,1,503.627,1036.192Z" transform="translate(-455.513 -934.606)" fill="#fff"/>
    </g>
  </g>
</svg>
